<svg width="1200" height="630" viewBox="0 0 1200 630" xmlns="http://www.w3.org/2000/svg">
  <rect width="1200" height="630" fill="#0a0a0a"/>
  
  <!-- Circle around the hand -->
  <circle cx="600" cy="240" r="110" fill="transparent" stroke="#333333" stroke-width="2"/>
  
  <!-- Hand Icon (Lucide Hand) -->
  <g transform="translate(536, 176) scale(2.66)" stroke="#b3b3b3" stroke-width="2.5" fill="none" stroke-linecap="round" stroke-linejoin="round">
    <path d="M18 11V6a2 2 0 0 0-2-2v0a2 2 0 0 0-2 2v0"/>
    <path d="M14 10V4a2 2 0 0 0-2-2v0a2 2 0 0 0-2 2v0"/>
    <path d="M10 10.5V6a2 2 0 0 0-2-2v0a2 2 0 0 0-2 2v0"/>
    <path d="M18 8a2 2 0 1 1 4 0v6a8 8 0 0 1-8 8h-2c-2.8 0-4.5-.86-5.99-2.34l-3.6-3.6a2 2 0 0 1 2.83-2.82L7 15"/>
  </g>

  <!-- Text -->
  <text x="600" y="440" font-family="system-ui, -apple-system, sans-serif" font-size="90" font-weight="900" fill="#ffffff" text-anchor="middle" letter-spacing="-3">TURNER</text>
  
  <!-- Horizontal Line -->
  <line x1="480" y1="490" x2="720" y2="490" stroke="#ffffff" stroke-width="6" stroke-linecap="round"/>
</svg>
